<svg xmlns="http://www.w3.org/2000/svg" width="54" height="40" viewBox="0 0 54 40">
    <path fill="#B01C2E" fill-rule="evenodd" d="M49.827 33.172c-1.544 0-2.848-2.484-2.848-5.424 0-2.94 1.304-5.423 2.848-5.423.74 0 1.424.572 1.937 1.49-.633-.47-1.401-.542-2.486-.022-.087.05-2.114 1.29-1.56 4.894.29 1.878 1.298 2.686 2.181 2.686.063 0 .126-.004.187-.012 1.013-.134 1.916-1.32 1.651-3.666a.47.47 0 1 0-.936.105c.182 1.612-.296 2.558-.84 2.63-.482.072-1.109-.574-1.31-1.885-.454-2.942 1.047-3.907 1.07-3.925 1.168-.556 1.668-.36 2.897 2.074.037.342.057.695.057 1.054 0 2.94-1.305 5.424-2.848 5.424zm-17.355 0c.539-.515 1.531-1.866 1.596-4.875.753.508 1.954 1.544 2.559 3.277a.47.47 0 0 0 .783.173c.175-.18 1.611-1.929-1.522-8.047l-.006-.01 3.876-1.365h8.06c-1.077 1.11-1.781 3.102-1.781 5.423 0 2.32.704 4.313 1.782 5.424H32.472zm-3.023-7.217l5.559-1.957a.46.46 0 0 0 .041.128c1.576 3.08 1.911 4.9 1.903 5.903-1.206-2.096-3.078-2.937-3.171-2.978a.472.472 0 0 0-.66.446c.076 2.315-.393 3.647-.819 4.37-.388-3.497-2.279-5.406-2.853-5.912zm-1.136 7.217c-.042-2.217.118-4.632.819-6.214.753.79 2.263 2.78 2.298 6.078 0 .047.009.092.022.136h-3.139zm-.651 4.286c-1.656-1.596-3.393-4.057-3.414-4.086a.471.471 0 0 0-.698-.082c-.746.661-1.476 3.456-1.85 5.093-2.19-3.822-.892-11.092-.483-13.066l4.94 1.69a.473.473 0 0 0 .31-.002l1.924-.677c-1.465 2.952-1.02 8.622-.73 11.13zm-8.13-4.286H5.297c-1.778 0-3.348-1.116-3.907-2.777a8.255 8.255 0 0 1-.065-5.161 4.109 4.109 0 0 1 3.95-2.91h7.197l7.845 2.685c-.258 1.193-.928 4.68-.785 8.163zm19.765-20.75v8.974a.471.471 0 0 0-.294.198l-12.695 4.471-13.38-4.577V12.42l13.046 4.01a.477.477 0 0 0 .278 0l13.045-4.01zM5.201 9.062L26.113.973l19.83 7.672H26.386a.47.47 0 1 0 0 .939h18.946L26.113 15.49 5.201 9.063zm44.755 6.665v1.83h-2.994v-1.83c0-.823.671-1.492 1.497-1.492.825 0 1.497.669 1.497 1.492zm-.13 5.657H40.24v-9.253l7.748-2.381v3.592a2.437 2.437 0 0 0-1.967 2.385v2.3c0 .26.21.47.47.47h3.937a.47.47 0 0 0 .47-.47v-2.3c0-1.18-.847-2.166-1.967-2.385V9.114l-.002-.016a.48.48 0 0 0-.03-.15l-.008-.022a.47.47 0 0 0-.04-.072l-.008-.011a.48.48 0 0 0-.044-.053c-.006-.007-.013-.012-.02-.018a.46.46 0 0 0-.117-.08c-.009-.004-.017-.009-.026-.012l-.006-.003L26.283.032a.47.47 0 0 0-.34 0L3.596 8.677a.47.47 0 0 0 .031.886l8.358 2.569v9.253h-6.71A5.046 5.046 0 0 0 .423 24.96a9.174 9.174 0 0 0 .072 5.735c.689 2.044 2.617 3.417 4.8 3.417h14.296c.19 2.188.747 4.29 1.984 5.725a.472.472 0 0 0 .819-.212c.344-1.696.97-4.11 1.479-5.166.79 1.067 2.605 3.405 4.135 4.54.154.112.36.122.525.024a.47.47 0 0 0 .222-.474 45.648 45.648 0 0 1-.413-4.437h21.484c2.125 0 3.79-2.795 3.79-6.363 0-3.568-1.665-6.363-3.79-6.363z"/>
</svg>
