<svg xmlns="http://www.w3.org/2000/svg" width="38" height="43" viewBox="0 0 38 43">
    <g fill="#FFF" fill-rule="evenodd">
        <path d="M1.727 8.327l2.05 16.2C4.775 32.414 9.615 37.758 19 41.325c9.386-3.567 14.225-8.911 15.223-16.8l2.05-16.2L19 1.682 1.727 8.327zM19 43l-.28-.104C8.68 39.154 3.279 33.209 2.205 24.72L0 7.31 19 0l19 7.31-2.204 17.41c-1.074 8.488-6.476 14.433-16.516 18.176L19 43z"/>
        <path d="M4.865 10.24l1.773 13.917C7.457 30.583 11.387 35.035 19 38.156c7.613-3.121 11.543-7.573 12.361-13.999l1.774-13.917L19 4.837 4.865 10.24zM19 39l-.152-.062C10.843 35.696 6.713 31.03 5.85 24.254L4 9.734 19 4l15 5.734-1.85 14.52c-.863 6.776-4.994 11.442-12.999 14.684L19 39z"/>
        <path d="M13.895 28.519c-1.217-.988-1.827-2.59-1.827-4.808V16.52H11V13h7.904v3.52h-.855v8.286c0 .472.104.819.31 1.04.206.223.516.333.93.333.413 0 .722-.11.929-.333.206-.221.31-.568.31-1.04V16.52h-.855V13H27v3.52h-1.068v7.191c0 2.218-.591 3.82-1.773 4.808-1.182.987-2.877 1.481-5.084 1.481-2.236 0-3.963-.494-5.18-1.481"/>
    </g>
</svg>
