<svg xmlns="http://www.w3.org/2000/svg" width="16" height="16" viewBox="0 0 16 16">
    <g fill="#3C3C3D" fill-rule="nonzero">
        <path d="M5.786 8.812c0-.2-.166-.362-.371-.362H4.121a.367.367 0 0 0-.37.362v1.265c0 .2.165.362.37.362h1.294c.205 0 .37-.162.37-.362V8.812zM9.02 8.812c0-.2-.166-.362-.37-.362H7.355a.367.367 0 0 0-.37.362v1.265c0 .2.166.362.37.362H8.65c.204 0 .37-.162.37-.362V8.812zM12.255 8.812c0-.2-.166-.362-.37-.362H10.59a.367.367 0 0 0-.37.362v1.265c0 .2.165.362.37.362h1.294c.205 0 .371-.162.371-.362V8.812zM5.786 11.974c0-.2-.166-.363-.371-.363H4.121a.366.366 0 0 0-.37.363v1.265c0 .2.165.362.37.362h1.294c.205 0 .37-.162.37-.362v-1.265zM9.02 11.974c0-.2-.166-.363-.37-.363H7.355a.366.366 0 0 0-.37.363v1.265c0 .2.166.362.37.362H8.65c.204 0 .37-.162.37-.362v-1.265zM12.255 11.974c0-.2-.166-.363-.37-.363H10.59a.367.367 0 0 0-.37.363v1.265c0 .2.165.362.37.362h1.294c.205 0 .371-.162.371-.362v-1.265z"/>
        <path d="M14.57 1.778v1.933c0 .873-.726 1.577-1.619 1.577h-1.02c-.894 0-1.628-.704-1.628-1.577V1.77h-4.6v1.94c0 .873-.735 1.577-1.628 1.577H3.054c-.893 0-1.618-.704-1.618-1.577V1.778C.656 1.801.014 2.433.014 3.21v11.323c0 .79.655 1.44 1.464 1.44h13.049c.807 0 1.464-.65 1.464-1.44V3.21c0-.776-.641-1.408-1.422-1.43zm-.475 12.049a.626.626 0 0 1-.633.619H2.515a.626.626 0 0 1-.633-.619V7.978c0-.342.284-.619.633-.619h10.947c.35 0 .633.277.633.62v5.848z"/>
        <path d="M3.05 4.252h1.01a.549.549 0 0 0 .555-.542V.542c0-.3-.249-.542-.555-.542H3.05a.549.549 0 0 0-.555.542V3.71c0 .3.249.542.555.542zM11.917 4.252h1.01a.548.548 0 0 0 .555-.542V.542c0-.3-.249-.542-.555-.542h-1.01a.549.549 0 0 0-.554.542V3.71c0 .3.248.542.554.542z"/>
    </g>
</svg>
