<svg xmlns="http://www.w3.org/2000/svg" width="50" height="40" viewBox="0 0 50 40">
    <path fill="#B01C2E" fill-rule="evenodd" d="M45.628 0C48.038 0 50 1.99 50 4.437v2.61a.454.454 0 0 1-.45.458h-7.394v28.058c0 2.32-1.764 4.228-4.002 4.42a.442.442 0 0 1-.115.017H4.372C1.962 40 0 38.01 0 35.563v-3.11c0-.252.202-.456.45-.456h7.394V4.437C7.844 1.991 9.805 0 12.216 0zm-2.654.914H12.216c-1.914 0-3.472 1.58-3.472 3.523v27.56h25.118c.249 0 .45.204.45.456v3.11c0 1.943 1.558 3.523 3.472 3.523s3.472-1.58 3.472-3.523V4.437c0-1.434.675-2.711 1.718-3.523zM8.217 32.91H.9v2.653c0 1.943 1.557 3.523 3.471 3.523h30.759a4.455 4.455 0 0 1-1.719-3.523V32.91H8.372a.444.444 0 0 1-.155 0zm10.544-7.565a.48.48 0 0 1 .472.489.48.48 0 0 1-.472.488h-6.749a.48.48 0 0 1-.472-.488.48.48 0 0 1 .472-.489zm8.655-2.93a.48.48 0 0 1 .472.488.48.48 0 0 1-.472.488H12.011a.48.48 0 0 1-.471-.488.48.48 0 0 1 .471-.489zm6.787-13.678c2.393 0 4.34 1.97 4.34 4.393 0 1.098-.4 2.102-1.06 2.872l1.91 4.618a.46.46 0 0 1-.098.499.446.446 0 0 1-.492.096l-1.537-.66-.614 1.572a.45.45 0 0 1-.413.287.451.451 0 0 1-.42-.278l-1.68-4.048-1.681 4.048a.45.45 0 0 1-.415.278.452.452 0 0 1-.418-.287l-.613-1.573-1.537.661a.445.445 0 0 1-.493-.096.46.46 0 0 1-.097-.499l1.952-4.72a4.406 4.406 0 0 1-.973-2.77c0-2.422 1.946-4.393 4.34-4.393zm2.578 7.925a4.291 4.291 0 0 1-1.922.812l1.362 3.28.378-.968a.445.445 0 0 1 .594-.252l.944.406zm-5.253-.076L30.14 19.94l.944-.406a.445.445 0 0 1 .594.252l.378.968 1.371-3.302a4.296 4.296 0 0 1-1.9-.866zm-4.112 2.898a.48.48 0 0 1 .472.488.48.48 0 0 1-.472.489H12.011a.48.48 0 0 1-.471-.489.48.48 0 0 1 .471-.488zm0-2.931a.48.48 0 0 1 .472.488.48.48 0 0 1-.472.489H12.011a.48.48 0 0 1-.471-.489.48.48 0 0 1 .471-.488zm6.787-6.906c-1.897 0-3.44 1.563-3.44 3.483 0 1.92 1.542 3.483 3.44 3.484.909 0 1.734-.359 2.349-.941a.447.447 0 0 1 .183-.187c.564-.62.909-1.448.909-2.356 0-1.92-1.544-3.483-3.44-3.483zm-6.787 2.998a.48.48 0 0 1 .472.488.48.48 0 0 1-.472.489H12.011a.48.48 0 0 1-.471-.489.48.48 0 0 1 .471-.488zm-8.655-3.908a.48.48 0 0 1 .472.488.48.48 0 0 1-.472.489h-6.749a.48.48 0 0 1-.472-.489.48.48 0 0 1 .472-.488zm14.43-2.931c.258 0 .467.219.467.488 0 .27-.21.489-.467.489H15.854a.478.478 0 0 1-.468-.489c0-.27.21-.488.468-.488zM45.628.914c-1.914 0-3.472 1.58-3.472 3.523v2.154H49.1V4.437c0-1.942-1.557-3.523-3.471-3.523z"/>
</svg>
