<svg xmlns="http://www.w3.org/2000/svg" width="40" height="40" viewBox="0 0 40 40">
    <path fill="#B01C2E" fill-rule="evenodd" d="M19.612 0a19.5 19.5 0 0 1 8.058 1.732 19.719 19.719 0 0 1 6.952 5.27c.049.042.089.09.12.144a19.527 19.527 0 0 1 4.483 12.467c0 3.974-1.189 7.676-3.229 10.769a.565.565 0 0 1-.089.134c-3.523 5.248-9.512 8.708-16.295 8.708-1.485 0-2.933-.166-4.325-.48l-.038.003a.6.6 0 0 1-.301-.082c-4.968-1.217-9.199-4.33-11.878-8.527A19.501 19.501 0 0 1 0 19.613c0-5.012 1.889-9.59 4.992-13.06a.556.556 0 0 1 .126-.141 19.747 19.747 0 0 1 5.925-4.44.555.555 0 0 1 .146-.07A19.507 19.507 0 0 1 19.612 0zm3.451 27.231l-7.555-.001-3.41 3.656 3.534 6.711c1.282.284 2.614.433 3.98.433 1.31 0 2.588-.137 3.82-.398l3.25-6.722-3.492-3.491a.596.596 0 0 1-.127-.188zm11.154 3.592l-6.423.533-2.847 5.887a18.484 18.484 0 0 0 9.27-6.42zM14.06 37.175l-3.073-5.834-6.198-.809a18.493 18.493 0 0 0 9.271 6.643zm18.214-20.742l-4.403 2.018-3.34 8.402a.595.595 0 0 1-.078.14l3.178 3.178 7.482-.62a18.298 18.298 0 0 0 2.791-7.771l-5.63-5.347zm-25.325 0L1.32 21.78a18.292 18.292 0 0 0 2.578 7.433l7.245.944 3.409-3.655-3.201-8.051-4.403-2.018zm12.663-3.23l-7.065 5.02 3.107 7.813h7.917l3.106-7.812-7.065-5.02zM34.536 8.83l-1.488 6.692 4.972 4.722A18.32 18.32 0 0 0 34.536 8.83zM1.194 19.613c0 .211.003.422.01.631l4.99-4.74L5.1 8.283a18.328 18.328 0 0 0-3.906 11.33zm26.23-16.68l-7.215 3.798v5.431l7.26 5.159 4.405-2.018 1.708-7.681a18.525 18.525 0 0 0-6.158-4.688zM6.125 7.083l1.248 8.231 4.38 2.008 7.262-5.159V6.748l-7.632-3.611a18.524 18.524 0 0 0-5.258 3.945zm13.487-5.888c-2.399 0-4.692.461-6.796 1.3l6.783 3.21 6.398-3.37a18.331 18.331 0 0 0-6.385-1.14z"/>
</svg>
